<svg viewBox="5.356 10.34 20.861 23.999" xmlns="http://www.w3.org/2000/svg" width="20.861" height="23.999">
  <defs>
    <clipPath id="a">
      <path fill="#fff" d="M1.482 5.08h31.572v44.678H1.482z"/>
    </clipPath>
  </defs>
  <path d="m16.461 17.519 5.058 2.62q.114.062.19.128.07.066.114.168t.06.272.014.432q0 .304-.044.486-.044.176-.13.268-.09.09-.204.086-.12-.008-.264-.078l-5.468-2.57-5.454 2.582q-.144.07-.268.078-.124.004-.22-.078-.094-.086-.14-.268-.04-.18-.04-.482 0-.264.01-.428.014-.16.06-.272.044-.106.12-.168.07-.058.19-.132l5.158-2.654q.334-.172.628-.172.288 0 .628.18zm-.03 4.454 4.81 2.582q.114.062.19.124.074.058.11.168.034.106.05.276t.014.448q0 .312-.034.498-.04.19-.12.28-.08.086-.19.086t-.254-.082l-5.188-2.596-5.278 2.658q-.144.07-.244.07-.104 0-.18-.09-.07-.09-.114-.276-.044-.19-.044-.502 0-.264.014-.44.014-.172.06-.276t.11-.168.18-.128l4.914-2.64q.304-.168.588-.168.288 0 .608.176"/>
  <path d="M26.217 22.075q0 2.822-.686 5.09-.658 2.268-1.978 3.876-1.318 1.582-3.322 2.452-2.004.844-4.668.844-2.636 0-4.562-.79-1.924-.764-3.164-2.268-1.266-1.502-1.872-3.718-.606-2.214-.606-5.09 0-2.768.658-5.01.658-2.268 2.004-3.85t3.322-2.426q2.004-.844 4.668-.844 2.584 0 4.51.764 1.898.764 3.164 2.268 1.292 1.476 1.898 3.666.632 2.188.632 5.036m-3.27.21q0-1.978-.342-3.692-.368-1.714-1.186-2.954-.818-1.266-2.188-1.952-1.37-.712-3.376-.712-2.03 0-3.402.764-1.37.738-2.214 2.004-.87 1.266-1.24 2.954-.368 1.688-.368 3.534 0 2.056.342 3.798t1.16 2.98q.818 1.266 2.162 1.952 1.37.686 3.428.686 2.03 0 3.428-.764 1.37-.738 2.214-2.03.87-1.292 1.212-2.98.368-1.688.368-3.586"/>
</svg>
